PathFileType	4	(X/Y/Z)	/Users/itak/Documents/Research/Walk-IL/dataset/trc/00324_00011.trc
DataRate	CameraRate	NumFrames	NumMarkers	Units	OrigDataRate	OrigDataStartFrame	OrigNumFrames
100.000000	100.000000	4	56	mm	100.000000	360	480
Frame#	Time	LPSI			L3			STRN			T10			C7			CLAV			RBAK			LBAK			LSHO			LUPA			LAEL			LAOL			LWTS			LWPS			LFRA			LHPS			LHTS			RSHO			RUPA			RAEL			RAOL			RWTS			RWPS			RFRA			RIFD			RHTS			RHPS			RBHD			LFHD			RFHD			LBHD			LHIP			RASI			LASI			LKNE			LTHI			LANK			LTIP			LTOE			LMT1			LMT5			LHEE			RKNE			RANK			RTIP			RTOE			RMT1			RMT5			RHEE			RPSI			LIFD			RHIP			RTHI			*53			*54			*55			
		X1	Y1	Z1	X2	Y2	Z2	X3	Y3	Z3	X4	Y4	Z4	X5	Y5	Z5	X6	Y6	Z6	X7	Y7	Z7	X8	Y8	Z8	X9	Y9	Z9	X10	Y10	Z10	X11	Y11	Z11	X12	Y12	Z12	X13	Y13	Z13	X14	Y14	Z14	X15	Y15	Z15	X16	Y16	Z16	X17	Y17	Z17	X18	Y18	Z18	X19	Y19	Z19	X20	Y20	Z20	X21	Y21	Z21	X22	Y22	Z22	X23	Y23	Z23	X24	Y24	Z24	X25	Y25	Z25	X26	Y26	Z26	X27	Y27	Z27	X28	Y28	Z28	X29	Y29	Z29	X30	Y30	Z30	X31	Y31	Z31	X32	Y32	Z32	X33	Y33	Z33	X34	Y34	Z34	X35	Y35	Z35	X36	Y36	Z36	X37	Y37	Z37	X38	Y38	Z38	X39	Y39	Z39	X40	Y40	Z40	X41	Y41	Z41	X42	Y42	Z42	X43	Y43	Z43	X44	Y44	Z44	X45	Y45	Z45	X46	Y46	Z46	X47	Y47	Z47	X48	Y48	Z48	X49	Y49	Z49	X50	Y50	Z50	X51	Y51	Z51	X52	Y52	Z52	X53	Y53	Z53	X54	Y54	Z54	X55	Y55	Z55	X56	Y56	Z56	

361	3.6	648.3521728515625	945.5106201171875	65.24180603027344	643.0653076171875	1014.985961914062	127.8376541137695	872.024658203125	1209.325317382812	94.59181976318359	635.7144775390625	1130.283203125	108.369758605957	660.7813110351562	1380.17724609375	81.42273712158203	820.2775268554688	1331.019409179688	88.67317962646484	624.3973999023438	1240.462158203125	154.2843627929688	651.3018798828125	1338.45361328125	-18.65442276000977	736.7728271484375	1354.859130859375	-74.94709777832031	728.081787109375	1232.847900390625	-137.89501953125	758.0068359375	1031.36865234375	-149.0847320556641	690.0155029296875	1014.352111816406	-99.51370239257812	851.9730224609375	789.8479614257812	-99.9990234375	821.8925170898438	779.4656372070312	-161.2703247070312	776.75927734375	927.9405517578125	-157.0756988525391	820.874755859375	708.6309204101562	-157.1656341552734	868.6874389648438	712.9862670898438	-115.1467056274414	717.8736572265625	1376.102783203125	244.6384735107422	703.63525390625	1315.050048828125	310.5624084472656	700.3546752929688	1048.623779296875	355.3726806640625	675.4454345703125	1036.658935546875	263.6292724609375	851.2299194335938	846.62353515625	334.1593017578125	806.1727294921875	819.9158935546875	389.7958984375	728.20556640625	983.1900024414062	371.1619873046875	906.1475830078125	684.0477905273438	348.7748413085938	897.8928833007812	754.7626953125	355.7576904296875	839.6646118164062	743.4047241210938	391.4063415527344	678.7525024414062	1577.5	158.8513641357422	841.1439819335938	1619.432739257812	34.21670150756836	833.776123046875	1621.16943359375	135.1881408691406	663.3193359375	1564.331176757812	15.45039749145508	727.2462768554688	895.0569458007812	-47.28147506713867	855.57373046875	944.4193115234375	238.5819244384766	849.13671875	934.7142944335938	-2.339417219161987	872.1290283203125	460.9503479003906	-54.39351654052734	851.0923461914062	589.0342407226562	-58.17043304443359	521.1676025390625	206.4886627197266	-4.321420669555664	697.9572143554688	318.9186401367188	-43.75117874145508	651.9713134765625	37.82394409179688	16.39453506469727	611.8204345703125	85.12902069091797	70.22219085693359	586.635009765625	103.6582489013672	-38.72147369384766	513.4570922851562	224.0771942138672	68.41085815429688	896.6204833984375	454.3938903808594	242.2491760253906	866.2069702148438	43.30759048461914	200.7651824951172	918.436279296875	334.8248596191406	226.5895385742188	1058.331298828125	33.18937683105469	140.3527679443359	999.5218505859375	28.73850631713867	100.7271041870117	966.6715087890625	28.6452465057373	213.9053192138672	815.2831420898438	43.73799896240234	154.5835723876953	663.9197998046875	948.1041259765625	194.3431854248047	860.01171875	630.1819458007812	-97.16867065429688	760.91259765625	903.9607543945312	293.6407165527344	873.5756225585938	712.27392578125	281.5875244140625	nan	nan	nan	nan	nan	nan	nan	nan	nan	
362	3.61	653.5852661132812	946.7562255859375	65.57151031494141	647.994140625	1015.991943359375	128.7017974853516	877.5484619140625	1210.254638671875	94.85398864746094	641.4035034179688	1131.42431640625	109.7078247070312	666.4228515625	1381.193725585938	82.31288146972656	825.8587646484375	1331.96435546875	89.00737762451172	630.0701904296875	1241.631225585938	155.5496978759766	656.6136474609375	1339.472290039062	-17.62734031677246	741.82080078125	1355.77197265625	-74.37834167480469	731.7832641601562	1233.76708984375	-137.1203308105469	757.7734985351562	1031.800415039062	-148.1740112304688	690.5712280273438	1016.080993652344	-97.25531768798828	846.4276123046875	787.6702270507812	-101.5701446533203	814.6942138671875	778.6165161132812	-162.2041015625	774.0050048828125	928.1522827148438	-156.5480499267578	811.9216918945312	707.9198608398438	-158.8828735351562	860.6932983398438	710.5037231445312	-117.8140716552734	724.1217651367188	1377.369384765625	245.2863922119141	710.565185546875	1316.351684570312	311.5359802246094	710.723876953125	1049.975708007812	357.5938110351562	684.3248901367188	1037.385131835938	266.515625	867.4070434570312	853.2736206054688	334.0606994628906	824.0447387695312	824.7606811523438	390.2164306640625	740.5386352539062	985.35546875	373.2323303222656	929.3080444335938	693.3229370117188	348.3331909179688	918.529296875	764.2463989257812	356.036376953125	860.7537841796875	749.7913818359375	391.5689086914062	684.6015625	1578.420776367188	159.7052001953125	846.7742919921875	1620.370849609375	34.78823089599609	839.5895385742188	1622.030517578125	135.7598724365234	668.8956909179688	1565.356689453125	16.30074119567871	732.7786865234375	896.663818359375	-46.96805953979492	860.6564331054688	944.9068603515625	239.3404846191406	854.2064819335938	936.1260986328125	-1.453666567802429	882.384765625	463.2847595214844	-54.31887817382812	859.4302368164062	591.2908935546875	-58.37051010131836	534.3610229492188	203.9736633300781	-5.020510673522949	709.8394165039062	319.1436462402344	-44.0224494934082	670.3606567382812	39.79215621948242	14.65733432769775	628.397705078125	84.75649261474609	68.88544464111328	603.0556640625	103.8318939208984	-39.9619255065918	526.1077270507812	220.9706573486328	67.80181121826172	899.4685668945312	454.3444213867188	242.1197052001953	866.3693237304688	43.45104598999023	200.6189270019531	920.5003051757812	334.6341552734375	226.3051147460938	1058.4140625	33.05869293212891	140.298583984375	999.6019897460938	28.64034843444824	100.6035461425781	966.7477416992188	28.72807502746582	213.8283843994141	815.3639526367188	43.99524688720703	154.4901580810547	668.9437866210938	949.0144653320312	194.6340484619141	850.0770874023438	627.6748046875	-100.5757141113281	765.5056762695312	904.3519897460938	293.9463195800781	877.9942626953125	712.25	281.4577026367188	nan	nan	nan	nan	nan	nan	nan	nan	nan	
363	3.62	658.7754516601562	948.0957641601562	65.74576568603516	652.9308471679688	1016.891235351562	129.3507385253906	882.9146118164062	1211.26708984375	95.14684295654297	646.84619140625	1132.5625	110.9131164550781	671.8847045898438	1382.215576171875	83.17755889892578	831.2685546875	1332.997802734375	89.337158203125	635.6607666015625	1242.800415039062	156.7406158447266	661.7426147460938	1340.523071289062	-16.6021556854248	746.6482543945312	1356.776245117188	-73.79589080810547	735.1256713867188	1234.85595703125	-136.4031829833984	757.1849975585938	1032.501953125	-147.3346710205078	690.95556640625	1018.01513671875	-94.91053771972656	841.0869140625	786.119384765625	-103.3376922607422	807.5491943359375	778.3212890625	-163.1588592529297	771.0196533203125	928.6809692382812	-156.1047210693359	803.1432495117188	707.8031616210938	-160.541259765625	852.9094848632812	708.6343994140625	-120.5998229980469	730.1080322265625	1378.666259765625	245.8847351074219	717.23828125	1317.708129882812	312.4421691894531	720.9047241210938	1051.446655273438	359.7299194335938	693.1323852539062	1038.310913085938	269.5588684082031	883.0980224609375	860.0774536132812	333.8351745605469	841.468994140625	829.94677734375	390.5008850097656	752.657470703125	987.7015991210938	375.1991882324219	951.4212036132812	702.8291015625	347.5798950195312	938.1808471679688	773.5867309570312	355.7219543457031	881.1519165039062	756.5342407226562	391.547119140625	690.3395385742188	1579.378662109375	160.5177612304688	852.2863159179688	1621.305297851562	35.32796859741211	845.296630859375	1622.893188476562	136.2907562255859	674.349609375	1566.435546875	17.10630798339844	738.2142944335938	898.3421020507812	-46.82888793945312	865.5453491210938	945.3834228515625	240.0724334716797	859.2122802734375	937.53076171875	-0.5908833146095276	892.04736328125	465.5384826660156	-54.20734786987305	867.2493896484375	593.5017700195312	-58.58794021606445	547.7216796875	200.3989410400391	-5.851048469543457	721.4686889648438	318.9114379882812	-44.31796646118164	689.456787109375	41.49775695800781	13.19764518737793	645.5432739257812	83.96916961669922	67.64556884765625	620.0604248046875	103.344841003418	-41.15217208862305	538.7625122070312	216.8394165039062	67.03563690185547	902.1512451171875	454.2467346191406	241.9906158447266	866.51171875	43.5888557434082	200.4999389648438	922.4183959960938	334.43896484375	225.9830017089844	1058.4912109375	32.93228912353516	140.2588043212891	999.6691284179688	28.55989074707031	100.5147323608398	966.8182983398438	28.81114196777344	213.7567596435547	815.4624633789062	44.24275588989258	154.3824005126953	673.8270263671875	950.0162353515625	194.7462921142578	840.5216064453125	625.7933349609375	-103.9523544311523	769.9088745117188	904.7798461914062	294.1501159667969	882.1181640625	712.1875	281.3689270019531	nan	nan	nan	nan	nan	nan	nan	nan	nan	
364	3.63	663.9012451171875	949.4625244140625	65.77796936035156	657.9052124023438	1017.690612792969	129.7944488525391	888.1329956054688	1212.345336914062	95.45598602294922	652.0508422851562	1133.681640625	111.9726409912109	677.179443359375	1383.238891601562	84.01231384277344	836.5167236328125	1334.101806640625	89.65605163574219	641.1451416015625	1243.955444335938	157.8477783203125	666.7037963867188	1341.601440429688	-15.58257293701172	751.285400390625	1357.856811523438	-73.20841217041016	738.11474609375	1236.094848632812	-135.7347717285156	756.2848510742188	1033.460205078125	-146.5615997314453	691.201904296875	1020.123168945312	-92.514892578125	835.9797973632812	785.141845703125	-105.2736053466797	800.5274047851562	778.513671875	-164.1183624267578	767.8513793945312	929.497802734375	-155.7404174804688	794.6035766601562	708.1903686523438	-162.0800476074219	845.3506469726562	707.2745361328125	-123.4086074829102	735.8421020507812	1379.967041015625	246.4400329589844	723.6610107421875	1319.082763671875	313.2851257324219	730.8714599609375	1052.99658203125	361.7804565429688	701.8915405273438	1039.335693359375	272.6459350585938	898.2741088867188	866.9840087890625	333.5033569335938	858.3916625976562	835.395751953125	390.6501770019531	764.4969482421875	990.1704711914062	377.0523681640625	972.4910278320312	712.4518432617188	346.5403747558594	956.8892822265625	782.792236328125	354.9223327636719	900.8194580078125	763.5347290039062	391.3171691894531	695.9684448242188	1580.361083984375	161.284912109375	857.6785278320312	1622.23583984375	35.83132553100586	850.8928833007812	1623.759399414062	136.7763671875	679.6796264648438	1567.55224609375	17.8652400970459	743.5313110351562	900.0355834960938	-46.85218048095703	870.25048828125	945.82666015625	240.7727813720703	864.1669921875	938.9049682617188	0.2243434935808182	901.133544921875	467.6770324707031	-54.06399154663086	874.6586303710938	595.6209106445312	-58.78754425048828	561.2402954101562	195.8576049804688	-6.798395156860352	732.8480834960938	318.2439270019531	-44.63949966430664	709.0791625976562	42.96804046630859	12.00984954833984	663.1538696289062	82.85010528564453	66.49897003173828	637.5234375	102.2567825317383	-42.28127288818359	551.4351806640625	211.7687225341797	66.12615966796875	904.6342163085938	454.1081237792969	241.8552551269531	866.6294555664062	43.71530532836914	200.4005584716797	924.1646728515625	334.2472534179688	225.6570434570312	1058.564453125	32.81072998046875	140.2253265380859	999.7242431640625	28.49045944213867	100.4502792358398	966.8824462890625	28.89055442810059	213.6893157958984	815.5720825195312	44.46992492675781	154.2537994384766	678.6072387695312	951.063720703125	194.7070770263672	831.3737182617188	624.4542236328125	-107.1781845092773	774.1898193359375	905.219970703125	294.2735290527344	885.9495849609375	712.0992431640625	281.3215026855469	nan	nan	nan	nan	nan	nan	nan	nan	nan	
